<svg xmlns="http://www.w3.org/2000/svg" xmlns:xlink="http://www.w3.org/1999/xlink" viewBox="0 0 128 128"><g id="图层_1"><g><g fill="#2f2f2f"/></g><g><g><defs><path id="SVGID_1_" d="M118.459 123.333c-4.319.227-14.205 1.261-21.75.538-2.401-.23-4.177-2.543-3.964-5.307 2.455-32.592 5.875-65.607 6.776-98.21.081-2.765 2.096-4.842 4.511-4.703 8.385.482 19.068 3.163 19.068 3.163 2.518.386 4.304 2.544 4.216 5.309-.982 32.604-1.561 61.918-4.097 94.508-.22 2.765-2.12 4.449-4.76 4.702z"/></defs><use xlink:href="#SVGID_1_" overflow="visible" fill="#78909c"/><clipPath id="SVGID_2_"><use xlink:href="#SVGID_1_" overflow="visible"/></clipPath><g clip-path="url(#SVGID_2_)"><path d="M115.161 15.645c2.355.592 7.067 4.346 6.856 8.798-1.581 33.348-2.613 62.064-5.733 95.374-.27 2.825-2.404 5.523-4.918 5.523" fill="none" stroke="#546e7a" stroke-width="3" stroke-miterlimit="10"/></g><g clip-path="url(#SVGID_2_)"><path d="M107.725 14.22c2.355.592 7.343 4.02 7.239 8.798-.732 33.377-2.999 62.03-5.733 95.374-.32 3.897-3.285 7.06-5.799 7.06" fill="none" stroke="#546e7a" stroke-width="3" stroke-miterlimit="10"/></g></g><g><path d="M98.389 124.022c-24.776-1.72-45.648-3.065-70.428-4.785-2.406-.167-4.177-2.543-3.964-5.307a2059.847 2059.847 0 0 0 5.034-97.81c.081-2.765 2.098-4.87 4.511-4.703 24.859 1.721 45.813 3.066 70.669 4.787 2.413.167 4.304 2.544 4.216 5.309a2060.255 2060.255 0 0 1-5.278 97.808c-.22 2.763-2.355 4.868-4.76 4.701z" fill="#b0bec5"/></g><path d="M80.827 111.966c-26.866-1.935-52.402-4.267-75.575-10.42-2.315-.615-3.977-2.882-2.814-5.031C15.709 71.982 25.092 55 29.19 26.329c.341-2.385 2.13-3.975 4.519-3.502 24.599 4.864 70.428 5.057 70.428 5.057 2.387.472 4.224 2.806 4.064 5.21C106.379 61.457 98.649 86 86.579 108.64c-1.151 2.159-3.405 3.792-5.752 3.326z" fill="#e0e0e0"/><g fill="#2f2f2f"><path d="M42.067 83.002l-2.577-.321 16.539-35.952a.65.65 0 0 0-.058-.639c-.122-.191-.342-.359-.565-.293l-13.559.468a.668.668 0 0 0-.578.383l-4.083 8.876a.64.64 0 0 0 .037.619.651.651 0 0 0 .533.313l3.685.155-11.446 24.873-2.997-.378a.65.65 0 0 0-.68.378l-3.876 8.428a.657.657 0 0 0 .517.928l15.068 1.898.082.008a.663.663 0 0 0 .599-.387l3.876-8.428a.67.67 0 0 0-.024-.595.667.667 0 0 0-.493-.334z"/><path d="M59.034 55.906l.737 7.728a.653.653 0 0 0 .363.525.655.655 0 0 0 .635-.024c.065-.041 6.503-3.921 10.871-3.921 2.142 0 3.29.896 3.624 2.818 1.604 9.324-25.398 19.812-25.675 19.918l-.358.338-4.353 9.455a.674.674 0 0 0 .021.594c.106.183.285.31.497.335l28.11 3.542.081.008a.666.666 0 0 0 .599-.387l4.161-9.042a.674.674 0 0 0-.021-.594.678.678 0 0 0-.496-.335l-16.009-2.02c3.241-1.332 9.413-4.161 17.133-9.116 6.975-4.479 12.764-13.55 9.96-20.391-1.91-4.649-5.481-7.011-10.619-7.011-8.615 0-18.558 6.689-18.973 6.975a.634.634 0 0 0-.288.605z"/></g><g><path d="M72.644 24.472c-5.502 0-9.978-4.476-9.978-9.978s4.476-9.978 9.978-9.978 9.978 4.476 9.978 9.978-4.476 9.978-9.978 9.978zm0-14.956c-2.744 0-4.978 2.233-4.978 4.978s2.233 4.978 4.978 4.978 4.978-2.233 4.978-4.978-2.234-4.978-4.978-4.978z" fill="#424242"/></g><path d="M103.572 37.857l-74.415-5.224a4.371 4.371 0 0 1-4.054-4.667l.949-12.883a4.371 4.371 0 0 1 4.667-4.054l74.414 4.585a4.372 4.372 0 0 1 4.055 4.667l-.949 13.521a4.372 4.372 0 0 1-4.667 4.055z" fill="#fcc21b"/><ellipse cx="67.145" cy="24.443" rx="3.034" ry="3.251" fill="#424242"/></g></g></svg>