<svg id="Label" xmlns="http://www.w3.org/2000/svg" viewBox="0 0 128 128"><g id="XMLID_3_"><path id="XMLID_10_" d="M4.274 92.682c12.604-.372 20.384-3.871 30.761-18.492" fill="none" stroke="#6e6e6e" stroke-width="5" stroke-linecap="round" stroke-miterlimit="10"/><path id="XMLID_15_" d="M122.157 38.071l-73.735.008C45.522 38.079 23 51.097 23 54.098v25.829C23 82.491 45.71 98 48.795 98h73.465c2.928 0 5.741-3.145 5.741-6.195V44.06c0-3.139-2.016-5.989-5.844-5.989zM37.906 76.124c-5.091 0-9.219-4.1-9.219-9.158s4.127-9.158 9.219-9.158 9.219 4.1 9.219 9.158-4.127 9.158-9.219 9.158z" fill="#fcc21b"/><g><path d="M35.13 61.3c-1.556 1.221-2.559 3.104-2.559 5.219 0 1.495.506 2.872 1.349 3.984 2.011-3.055 2.1-6.312 1.21-9.203z" fill="none"/><path d="M38.205 73.082c.354.057.714.095 1.084.095 3.705 0 6.718-2.987 6.718-6.658 0-3.443-2.651-6.284-6.036-6.624 1.361 4.506.799 9.186-1.766 13.187z" fill="none"/><g><path d="M38.205 73.082a6.697 6.697 0 0 1-2.628-1.034 6.72 6.72 0 0 0 4.33 1.575c3.705 0 6.719-2.987 6.719-6.658 0-3.615-2.924-6.56-6.55-6.65 1.203 4.377.614 8.89-1.871 12.767z" fill="none"/><path d="M35.337 62.098a6.607 6.607 0 0 0-2.149 4.867c0 1.193.323 2.311.879 3.281 1.68-2.702 1.892-5.545 1.27-8.148z" fill="none"/><path d="M35.576 72.048a6.703 6.703 0 0 0 2.628 1.034c2.486-3.878 3.074-8.391 1.87-12.767-.039-.14-.062-.281-.104-.421a18.94 18.94 0 0 0-2-4.415c-.101-.165-.192-.332-.299-.495a22.09 22.09 0 0 0-1.948-2.546c-5.459-6.162-15.252-10.033-24.825-4.791C4.239 51.297.744 57.683 1.311 65.17c.832 10.99 10.765 25.4 31.082 32.817a2.502 2.502 0 0 0 3.206-1.491 2.5 2.5 0 0 0-1.491-3.206C21.4 88.651 7.277 77.755 6.296 64.793c-.296-3.908.68-9.294 7.004-12.758 7.156-3.919 14.538-.955 18.681 3.72.29.328.57.683.843 1.05.141.19.271.394.405.593.789 1.17 1.464 2.485 1.9 3.903.081.262.144.53.208.798.622 2.603.41 5.446-1.27 8.148a6.721 6.721 0 0 0 1.509 1.801z" fill="#6e6e6e"/><path d="M39.906 55.307c-.661 0-1.304.068-1.935.173a18.94 18.94 0 0 1 2 4.415c.042.14.066.281.104.421 3.626.09 6.55 3.035 6.55 6.65 0 3.671-3.014 6.658-6.719 6.658a6.722 6.722 0 0 1-5.839-3.377 6.566 6.566 0 0 1-.879-3.281c0-1.922.831-3.651 2.149-4.867-.064-.268-.127-.536-.208-.798-.437-1.417-1.111-2.733-1.9-3.903-3.042 2.108-5.041 5.608-5.041 9.568 0 6.428 5.257 11.658 11.718 11.658 6.462 0 11.719-5.23 11.719-11.658s-5.257-11.659-11.719-11.659z" fill="#444"/></g><path d="M39.289 54.861c-.55 0-1.087.051-1.617.124a19.004 19.004 0 0 1 2.299 4.91c3.385.34 6.036 3.181 6.036 6.624 0 3.671-3.014 6.658-6.718 6.658-.37 0-.73-.038-1.084-.095a6.723 6.723 0 0 1-4.286-2.579 6.574 6.574 0 0 1-1.349-3.984c0-2.115 1.003-3.998 2.559-5.219-.511-1.659-1.337-3.191-2.306-4.496-3.163 2.09-5.254 5.662-5.254 9.714 0 6.428 5.257 11.658 11.719 11.658 6.461 0 11.718-5.23 11.718-11.658S45.75 54.861 39.289 54.861z" fill="#7c5e54"/></g></g></svg>